<svg width="201" height="52" viewBox="0 0 201 52" fill="none" xmlns="http://www.w3.org/2000/svg">
<path d="M139.051 35.4968V18.0345H147.233C149.328 18.0345 150.925 18.4502 152.023 19.2818C153.12 20.0967 153.669 21.1943 153.669 22.5747C153.669 23.506 153.453 24.3043 153.02 24.9695C152.588 25.6181 152.006 26.1254 151.274 26.4912C150.559 26.8405 149.777 27.0151 148.929 27.0151L149.378 26.117C150.359 26.117 151.241 26.3 152.023 26.6659C152.804 27.0151 153.42 27.5307 153.869 28.2125C154.334 28.8944 154.567 29.7426 154.567 30.757C154.567 32.2538 153.993 33.418 152.846 34.2495C151.698 35.0811 149.994 35.4968 147.732 35.4968H139.051ZM142.294 32.9523H147.532C148.746 32.9523 149.678 32.7527 150.326 32.3536C150.975 31.9545 151.299 31.3142 151.299 30.4327C151.299 29.5679 150.975 28.936 150.326 28.5368C149.678 28.1211 148.746 27.9132 147.532 27.9132H142.044V25.3936H146.884C148.015 25.3936 148.879 25.194 149.478 24.7949C150.093 24.3958 150.401 23.797 150.401 22.9988C150.401 22.1839 150.093 21.5768 149.478 21.1777C148.879 20.7785 148.015 20.579 146.884 20.579H142.294V32.9523ZM158.826 40.511C158.178 40.511 157.529 40.4029 156.881 40.1867C156.232 39.9705 155.692 39.6712 155.259 39.2887L156.506 36.9936C156.822 37.2763 157.18 37.5008 157.579 37.6671C157.978 37.8335 158.386 37.9166 158.801 37.9166C159.367 37.9166 159.824 37.7752 160.174 37.4925C160.523 37.2098 160.847 36.7358 161.146 36.0706L161.92 34.3244L162.169 33.9502L167.208 22.1755H170.202L163.965 36.5695C163.55 37.5674 163.084 38.3573 162.568 38.9394C162.069 39.5215 161.504 39.9289 160.872 40.1618C160.257 40.3946 159.575 40.511 158.826 40.511ZM161.571 35.9708L155.558 22.1755H158.801L163.691 33.6758L161.571 35.9708Z" fill="white"/>
<path d="M109.128 16.9634L109.331 27.7931L112.85 26.9398V20.6859C112.85 20.6859 117.913 20.0903 120.147 20.9837C121.306 21.4474 121.597 22.5649 121.636 23.8129C121.66 24.6058 121.196 25.36 120.648 25.9694C119.693 27.0305 118.181 27.2441 116.763 27.0872C115.712 26.971 114.491 26.8789 113.595 26.9398C111.864 27.0574 109.331 27.878 109.331 27.878V35.1741L112.999 35.4272L113.007 30.6838C113.007 30.6838 117.7 30.1568 120.74 30.6838C123.981 31.2456 127.594 35.4257 127.368 35.5761H130.719C130.398 34.5642 130.149 34.0075 129.527 33.0448C127.953 30.5446 125.857 29.2363 123.235 27.878L124.981 25.6946C125.447 24.4001 125.8 23.9764 125.765 22.4591C125.742 21.4797 125.477 20.5052 124.928 19.6933C124.145 18.5331 123.239 17.9012 122.027 17.4105C121.191 17.0719 120.284 16.9634 119.382 16.9634H109.128Z" fill="white"/>
<path d="M106.753 29.2799C104.262 30.8929 101.383 34.828 101.531 35.4236C103.509 35.3655 102.797 35.4818 104.774 35.4236C104.774 35.4236 105.523 33.9268 106.521 33.1785C107.519 32.4301 109.265 31.6817 109.265 31.6817V28.1892C109.265 28.1892 107.62 28.7185 106.753 29.2799Z" fill="white"/>
<path d="M11.1408 35.7571C9.69414 35.7571 8.36218 35.5277 7.1449 35.069C5.94527 34.5927 4.89558 33.9311 3.99585 33.0843C3.09613 32.2199 2.39928 31.2055 1.90531 30.0411C1.41134 28.8768 1.16435 27.6066 1.16435 26.2305C1.16435 24.8545 1.41134 23.5843 1.90531 22.4199C2.39928 21.2555 3.09613 20.25 3.99585 19.4032C4.91322 18.5387 5.98055 17.8772 7.19783 17.4185C8.41511 16.9421 9.74706 16.704 11.1937 16.704C12.7638 16.704 14.1751 16.9598 15.4277 17.4714C16.6979 17.983 17.7652 18.7328 18.6297 19.7207L16.4597 21.8377C15.7364 21.1144 14.9514 20.5852 14.1046 20.25C13.2754 19.8971 12.358 19.7207 11.3525 19.7207C10.3822 19.7207 9.48243 19.8795 8.65327 20.197C7.82411 20.5146 7.10962 20.9645 6.5098 21.5466C5.90998 22.1288 5.44248 22.8168 5.10728 23.6107C4.78973 24.4046 4.63096 25.2779 4.63096 26.2305C4.63096 27.1655 4.78973 28.03 5.10728 28.8239C5.44248 29.6177 5.90998 30.3146 6.5098 30.9144C7.10962 31.4966 7.81529 31.9464 8.62681 32.264C9.43833 32.5815 10.3381 32.7403 11.326 32.7403C12.2434 32.7403 13.1255 32.5992 13.9723 32.3169C14.8367 32.017 15.657 31.523 16.4333 30.835L18.3915 33.4019C17.4212 34.1781 16.2921 34.7691 15.0043 35.1749C13.7341 35.563 12.4462 35.7571 11.1408 35.7571ZM15.1366 32.952V26.0188H18.3915V33.4019L15.1366 32.952ZM31.6086 35.7571C30.1619 35.7571 28.83 35.5189 27.6127 35.0426C26.3954 34.5662 25.3369 33.9047 24.4372 33.0579C23.5375 32.1934 22.8406 31.1878 22.3466 30.0411C21.8527 28.8768 21.6057 27.6066 21.6057 26.2305C21.6057 24.8545 21.8527 23.5931 22.3466 22.4464C22.8406 21.282 23.5375 20.2764 24.4372 19.4296C25.3369 18.5652 26.3954 17.8948 27.6127 17.4185C28.83 16.9421 30.1531 16.704 31.5821 16.704C33.0287 16.704 34.3518 16.9421 35.5515 17.4185C36.7688 17.8948 37.8273 18.5652 38.727 19.4296C39.6267 20.2764 40.3236 21.282 40.8175 22.4464C41.3115 23.5931 41.5585 24.8545 41.5585 26.2305C41.5585 27.6066 41.3115 28.8768 40.8175 30.0411C40.3236 31.2055 39.6267 32.2111 38.727 33.0579C37.8273 33.9047 36.7688 34.5662 35.5515 35.0426C34.3518 35.5189 33.0375 35.7571 31.6086 35.7571ZM31.5821 32.7403C32.5171 32.7403 33.3815 32.5815 34.1754 32.264C34.9693 31.9464 35.6573 31.4966 36.2395 30.9144C36.8217 30.3146 37.2715 29.6266 37.5891 28.8503C37.9243 28.0564 38.0919 27.1832 38.0919 26.2305C38.0919 25.2779 37.9243 24.4134 37.5891 23.6372C37.2715 22.8433 36.8217 22.1553 36.2395 21.5731C35.6573 20.9733 34.9693 20.5146 34.1754 20.197C33.3815 19.8795 32.5171 19.7207 31.5821 19.7207C30.6471 19.7207 29.7826 19.8795 28.9888 20.197C28.2125 20.5146 27.5245 20.9733 26.9247 21.5731C26.3425 22.1553 25.8838 22.8433 25.5486 23.6372C25.2311 24.4134 25.0723 25.2779 25.0723 26.2305C25.0723 27.1655 25.2311 28.03 25.5486 28.8239C25.8838 29.6177 26.3425 30.3146 26.9247 30.9144C27.5068 31.4966 28.1949 31.9464 28.9888 32.264C29.7826 32.5815 30.6471 32.7403 31.5821 32.7403ZM45.205 35.4924V16.9686H52.8262C54.4669 16.9686 55.8694 17.2332 57.0337 17.7625C58.2157 18.2917 59.1243 19.0503 59.7594 20.0383C60.3945 21.0262 60.712 22.1994 60.712 23.5578C60.712 24.9162 60.3945 26.0894 59.7594 27.0773C59.1243 28.0653 58.2157 28.8239 57.0337 29.3531C55.8694 29.8824 54.4669 30.147 52.8262 30.147H47.1103L48.6451 28.5328V35.4924H45.205ZM48.6451 28.9032L47.1103 27.2361H52.6674C54.1846 27.2361 55.3225 26.9185 56.0811 26.2834C56.8573 25.6307 57.2454 24.7222 57.2454 23.5578C57.2454 22.3758 56.8573 21.4672 56.0811 20.8321C55.3225 20.197 54.1846 19.8795 52.6674 19.8795H47.1103L48.6451 18.1859V28.9032ZM77.167 16.9686H80.6072V35.4924H77.167V16.9686ZM67.5876 35.4924H64.1474V16.9686H67.5876V35.4924ZM77.4317 27.5536H67.2965V24.6163H77.4317V27.5536ZM88.7463 24.6692H97.9553V27.5007H88.7463V24.6692ZM89.0109 32.608H99.4636V35.4924H85.5708V16.9686H99.0932V19.853H89.0109V32.608Z" fill="white"/>
<path d="M197.92 35.5351H200.059L196.584 31.3375L199.867 27.9622H197.829L194.32 31.5001V27.9622H192.498V35.5351H194.32V33.6203L195.384 32.5601L197.92 35.5351Z" fill="white"/>
<path d="M192.252 35.5356L190.474 33.1013C191.505 32.6793 192.105 31.8463 192.105 30.7103C192.105 29.0119 190.78 27.9626 188.663 27.9626H185.233V35.5356H187.067V33.426H188.753L190.282 35.5357L192.252 35.5356ZM190.248 30.7103C190.248 31.5326 189.682 32.0302 188.561 32.0302H187.067V29.3907H188.561C189.682 29.3906 190.248 29.8772 190.248 30.7103Z" fill="white"/>
<path d="M183.083 35.5353H185.007L181.464 27.9624H179.653L176.121 35.5353H178L178.702 33.9124H182.381L183.083 35.5353ZM179.29 32.5819L180.547 29.6824L181.803 32.5819H179.29Z" fill="white"/>
<path fill-rule="evenodd" clip-rule="evenodd" d="M190.819 14.5129H186.48L186.01 16.1702H186.009L184.833 20.3144L188.65 22.3933L192.467 20.3144L192.029 18.7715L191.29 16.1699L190.819 14.5129ZM187.278 11.7072H190.022L188.65 6.87661L187.278 11.7072ZM179.705 14.5129V17.5219L182.166 18.8622L183.321 14.7982L183.405 14.5128L179.705 14.5129ZM193.878 14.5129L193.961 14.7983L193.971 14.7712L195.133 18.8622L197.594 17.5219V14.5129H193.878ZM187.524 0H189.776C190.895 3.93827 191.949 7.78319 193.057 11.707H200.568V14.5127H200.557L200.568 19.1412L188.65 25.6321L176.732 19.1415V11.7072H184.225C185.33 7.7934 186.411 3.92042 187.524 0Z" fill="white"/>
</svg>
